<?xml version="1.0" encoding="UTF-8" standalone="no"?>
<!-- Generator: Adobe Illustrator 21.1.0, SVG Export Plug-In . SVG Version: 6.00 Build 0)  -->

<svg
   xmlns:dc="http://purl.org/dc/elements/1.1/"
   xmlns:cc="http://creativecommons.org/ns#"
   xmlns:rdf="http://www.w3.org/1999/02/22-rdf-syntax-ns#"
   xmlns:svg="http://www.w3.org/2000/svg"
   xmlns="http://www.w3.org/2000/svg"
   xmlns:sodipodi="http://sodipodi.sourceforge.net/DTD/sodipodi-0.dtd"
   xmlns:inkscape="http://www.inkscape.org/namespaces/inkscape"
   version="1.1"
   id="Layer_1"
   x="0px"
   y="0px"
   viewBox="0 0 81.321831 42.769889"
   xml:space="preserve"
   inkscape:version="0.91 r13725"
   sodipodi:docname="itil.svg"
   width="81.321831"
   height="42.76989"><metadata
     id="metadata33"><rdf:RDF><cc:Work
         rdf:about=""><dc:format>image/svg+xml</dc:format><dc:type
           rdf:resource="http://purl.org/dc/dcmitype/StillImage" /><dc:title></dc:title></cc:Work></rdf:RDF></metadata><defs
     id="defs31" /><sodipodi:namedview
     pagecolor="#ffffff"
     bordercolor="#666666"
     borderopacity="1"
     objecttolerance="10"
     gridtolerance="10"
     guidetolerance="10"
     inkscape:pageopacity="0"
     inkscape:pageshadow="2"
     inkscape:window-width="3326"
     inkscape:window-height="1899"
     id="namedview29"
     showgrid="false"
     inkscape:zoom="2.3894389"
     inkscape:cx="71.421274"
     inkscape:cy="21.07818"
     inkscape:window-x="89"
     inkscape:window-y="33"
     inkscape:window-maximized="1"
     inkscape:current-layer="Layer_1"
     fit-margin-top="0"
     fit-margin-left="0"
     fit-margin-right="0"
     fit-margin-bottom="0" /><style
     type="text/css"
     id="style3">
	.st0{fill-rule:evenodd;clip-rule:evenodd;fill:#046474;}
	.st1{fill-rule:evenodd;clip-rule:evenodd;fill:#00B1C5;}
	.st2{fill-rule:evenodd;clip-rule:evenodd;fill:#99D0DC;}
	.st3{fill:#00B1C5;}
	.st4{fill-rule:evenodd;clip-rule:evenodd;fill:#002E43;}
	.st5{fill-rule:evenodd;clip-rule:evenodd;fill:#046E85;}
	.st6{fill-rule:evenodd;clip-rule:evenodd;fill:#89A4B6;}
	.st7{fill:#046E85;}
	.st8{fill-rule:evenodd;clip-rule:evenodd;fill:#0D2748;}
	.st9{fill-rule:evenodd;clip-rule:evenodd;fill:#00568A;}
	.st10{fill-rule:evenodd;clip-rule:evenodd;fill:#9DA8C4;}
	.st11{fill:#00568A;}
	.st12{fill-rule:evenodd;clip-rule:evenodd;fill:#543C24;}
	.st13{fill-rule:evenodd;clip-rule:evenodd;fill:#A53D23;}
	.st14{fill-rule:evenodd;clip-rule:evenodd;fill:#D19E85;}
	.st15{fill:#A53D23;}
	.st16{fill-rule:evenodd;clip-rule:evenodd;fill:#211B1C;}
	.st17{fill-rule:evenodd;clip-rule:evenodd;fill:#493738;}
	.st18{fill-rule:evenodd;clip-rule:evenodd;fill:#A69999;}
	.st19{fill:#493738;}
	.st20{fill:#5E2261;}
	.st21{fill-rule:evenodd;clip-rule:evenodd;fill:#4C2532;}
	.st22{fill-rule:evenodd;clip-rule:evenodd;fill:#5E2261;}
	.st23{fill-rule:evenodd;clip-rule:evenodd;fill:#9C7AA0;}
	.st24{fill-rule:evenodd;clip-rule:evenodd;fill:#5B245A;}
	.st25{fill-rule:evenodd;clip-rule:evenodd;fill:#130E3E;}
	.st26{fill-rule:evenodd;clip-rule:evenodd;fill:#4C4484;}
	.st27{fill-rule:evenodd;clip-rule:evenodd;fill:#9E95B9;}
	.st28{fill:#4C4484;}
	.st29{fill-rule:evenodd;clip-rule:evenodd;fill:#6D0C31;}
	.st30{fill-rule:evenodd;clip-rule:evenodd;fill:#AD1E58;}
	.st31{fill-rule:evenodd;clip-rule:evenodd;fill:#CB8190;}
	.st32{fill:none;}
	.st33{fill:#AF1F58;}
	.st34{fill-rule:evenodd;clip-rule:evenodd;fill:#070040;}
	.st35{fill-rule:evenodd;clip-rule:evenodd;fill:#4D4484;}
	.st36{fill:#4D4484;}
</style><g
     id="g5"
     transform="matrix(1.251105,0,0,1.8515102,-5.415691,-27.845802)"><g
       id="g15"
       transform="translate(155.68508,113.41575)"><rect
         x="-151.35635"
         y="-98.076241"
         class="st20"
         width="3.7"
         height="22.799999"
         id="rect7-6"
         style="fill:#5e2261" /><polygon
         transform="translate(-220.05635,-112.17624)"
         class="st20"
         points="74.8,14.1 99.5,14.1 99.5,17.5 89,17.5 89,36.9 85.3,36.9 85.3,17.5 74.8,17.5 "
         id="polygon9-1"
         style="fill:#5e2261" /><rect
         x="-118.15635"
         y="-98.076241"
         class="st20"
         width="3.7"
         height="22.799999"
         id="rect11-5"
         style="fill:#5e2261" /><polygon
         transform="translate(-220.05635,-112.17624)"
         class="st20"
         points="131.1,36.9 110.3,36.9 110.3,14.1 113.9,14.1 113.9,33.5 131.1,33.5 "
         id="polygon13-9"
         style="fill:#5e2261" /><path
         inkscape:connector-curvature="0"
         class="st20"
         d="m -86.356352,-95.876242 c 0,1.4 -1.1,2.5 -2.6,2.5 -1.4,0 -2.6,-1.1 -2.6,-2.5 0,-1.4 1.1,-2.5 2.6,-2.5 1.5,0 2.6,1.1 2.6,2.5 m -4.5,0 c 0,1.1 0.8,2 2,2 1.1,0 1.9,-0.9 1.9,-2 0,-1.1 -0.8,-2 -1.9,-2 -1.2,0 -2,0.9 -2,2 m 1.5,1.3 -0.6,0 0,-2.5 c 0.2,0 0.6,-0.1 1,-0.1 0.5,0 0.7,0.1 0.9,0.2 0.2,0.1 0.3,0.3 0.3,0.5 0,0.3 -0.2,0.5 -0.5,0.6 l 0,0 c 0.2,0.1 0.4,0.3 0.4,0.6 0.1,0.4 0.1,0.5 0.2,0.6 l -0.6,0 c -0.1,-0.1 -0.1,-0.3 -0.2,-0.6 0,-0.3 -0.2,-0.4 -0.5,-0.4 l -0.3,0 0,1.1 z m 0,-1.4 0.3,0 c 0.3,0 0.6,-0.1 0.6,-0.4 0,-0.2 -0.2,-0.4 -0.5,-0.4 -0.2,0 -0.3,0 -0.3,0 l 0,0.8 z"
         id="path17-4"
         style="fill:#5e2261" /></g></g></svg>