<?xml version="1.0" encoding="UTF-8" standalone="no"?>
<svg
   xmlns:dc="http://purl.org/dc/elements/1.1/"
   xmlns:cc="http://creativecommons.org/ns#"
   xmlns:rdf="http://www.w3.org/1999/02/22-rdf-syntax-ns#"
   xmlns:svg="http://www.w3.org/2000/svg"
   xmlns="http://www.w3.org/2000/svg"
   version="1.1"
   id="svg28"
   xml:space="preserve"
   width="122.66667"
   height="44"
   viewBox="0 0 122.66667 44"><metadata
     id="metadata34"><rdf:RDF><cc:Work
         rdf:about=""><dc:format>image/svg+xml</dc:format><dc:type
           rdf:resource="http://purl.org/dc/dcmitype/StillImage" /><dc:title></dc:title></cc:Work></rdf:RDF></metadata><defs
     id="defs32" /><g
     id="g36"
     transform="matrix(1.3333333,0,0,-1.3333333,0,44)"><g
       id="g38"
       transform="scale(0.1)"><path
         d="M 0.0390625,10.0391 H 315.03906 v 315 H 0.0390625 Z"
         style="fill:#e67a1c;fill-opacity:1;fill-rule:nonzero;stroke:none"
         id="path40" /><path
         d="m 365.27,71.1719 h 51.4805 v 152.5 H 365.27 Z"
         style="fill:#545454;fill-opacity:1;fill-rule:nonzero;stroke:none"
         id="path42" /><path
         d="m 582.23,250.781 v 47.188 H 444.02 v -47.188 h 42.429 L 486.129,71.1719 H 539.41 V 250.781 Z"
         style="fill:#545454;fill-opacity:1;fill-rule:nonzero;stroke:none"
         id="path44" /><path
         d="m 650.23,65.7813 c 54.77,0 79.219,51.7967 79.219,93.5977 0,41.711 -24.449,93.59 -79.219,93.59 -54.679,0 -79.14,-51.879 -79.14,-93.59 0,-41.801 24.461,-93.5977 79.14,-93.5977 z m 0,143.5977 c 16.961,0 27.04,-18.68 27.04,-50 0,-30.938 -10.079,-50.399 -27.04,-50.399 -16.871,0 -26.949,19.071 -26.949,50.399 0,31.32 10.078,50 26.949,50 z"
         style="fill:#545454;fill-opacity:1;fill-rule:nonzero;stroke:none"
         id="path46" /><path
         d="m 839.961,65.7813 c 62.269,0 74.918,59.3787 74.918,99.6877 0,37.5 -20.539,87.5 -67.34,87.5 -19.449,0 -37.418,-18.36 -37.418,-18.36 l 0.309,12.969 H 757.852 V 8.19922 H 810.43 V 78.3594 c 0,0 12.582,-12.5781 29.531,-12.5781 z m -1.41,143.9887 c 22.66,0 23.051,-31.329 23.051,-47.192 0,-15.469 0.699,-54.687 -23.051,-54.687 -25.93,0 -28.121,28.437 -28.121,48.589 V 195 c 7.968,6.879 13.359,14.77 28.121,14.77 z"
         style="fill:#545454;fill-opacity:1;fill-rule:nonzero;stroke:none"
         id="path48" /><path
         d="m 365.039,251.129 h 51.4805 v 46.293 H 365.039 Z"
         style="fill:#e67a1c;fill-opacity:1;fill-rule:nonzero;stroke:none"
         id="path50" /><path
         d="M 155.98,36.8398 129.879,62.9297 155.98,89.0195 182.07,62.9297 Z"
         style="fill:#ffffff;fill-opacity:1;fill-rule:nonzero;stroke:none"
         id="path52" /><path
         d="M 155.98,36.8398 129.879,62.9297 155.98,89.0195 182.07,62.9297 Z"
         style="fill:none;stroke:#ffffff;stroke-width:9.5;stroke-linecap:butt;stroke-linejoin:miter;stroke-miterlimit:4;stroke-dasharray:none;stroke-opacity:1"
         id="path54" /><path
         d="M 155.98,245.941 V 85.5117"
         style="fill:none;stroke:#ffffff;stroke-width:9.5;stroke-linecap:butt;stroke-linejoin:miter;stroke-miterlimit:4;stroke-dasharray:none;stroke-opacity:1"
         id="path56" /><path
         d="m 155.98,246.172 -26.101,26.058 26.101,26.129 26.09,-26.129 z"
         style="fill:#ffffff;fill-opacity:1;fill-rule:nonzero;stroke:none"
         id="path58" /><path
         d="m 155.98,246.172 -26.101,26.058 26.101,26.129 26.09,-26.129 z"
         style="fill:none;stroke:#ffffff;stroke-width:9.5;stroke-linecap:butt;stroke-linejoin:miter;stroke-miterlimit:4;stroke-dasharray:none;stroke-opacity:1"
         id="path60" /><path
         d="m 286.719,167.578 -26.098,-26.098 -26.09,26.098 26.09,26.094 z"
         style="fill:#ffffff;fill-opacity:1;fill-rule:nonzero;stroke:none"
         id="path62" /><path
         d="m 286.719,167.578 -26.098,-26.098 -26.09,26.098 26.09,26.094 z"
         style="fill:none;stroke:#ffffff;stroke-width:9.5;stroke-linecap:butt;stroke-linejoin:miter;stroke-miterlimit:4;stroke-dasharray:none;stroke-opacity:1"
         id="path64" /><path
         d="M 77.6211,167.578 H 238.051"
         style="fill:none;stroke:#ffffff;stroke-width:9.5;stroke-linecap:butt;stroke-linejoin:miter;stroke-miterlimit:4;stroke-dasharray:none;stroke-opacity:1"
         id="path66" /><path
         d="M 77.3789,167.578 51.2891,141.48 25.1992,167.578 51.2891,193.672 Z"
         style="fill:#ffffff;fill-opacity:1;fill-rule:nonzero;stroke:none"
         id="path68" /><path
         d="M 77.3789,167.578 51.2891,141.48 25.1992,167.578 51.2891,193.672 Z"
         style="fill:none;stroke:#ffffff;stroke-width:9.5;stroke-linecap:butt;stroke-linejoin:miter;stroke-miterlimit:4;stroke-dasharray:none;stroke-opacity:1"
         id="path70" /><path
         d="m 211.52,75.1211 h 36.9102 v 36.9102 H 211.52 Z"
         style="fill:#ffffff;fill-opacity:1;fill-rule:nonzero;stroke:none"
         id="path72" /><path
         d="m 211.52,75.1211 h 36.9102 v 36.9102 H 211.52 Z"
         style="fill:none;stroke:#ffffff;stroke-width:9.5;stroke-linecap:butt;stroke-linejoin:miter;stroke-miterlimit:4;stroke-dasharray:none;stroke-opacity:1"
         id="path74" /><path
         d="M 100.551,223.012 213.98,109.531"
         style="fill:#ffffff;fill-opacity:1;fill-rule:nonzero;stroke:none"
         id="path76" /><path
         d="M 100.551,223.012 213.98,109.531"
         style="fill:none;stroke:#ffffff;stroke-width:9.5;stroke-linecap:butt;stroke-linejoin:miter;stroke-miterlimit:4;stroke-dasharray:none;stroke-opacity:1"
         id="path78" /><path
         d="m 63.5195,223.129 h 36.9102 v 36.9102 H 63.5195 Z"
         style="fill:#ffffff;fill-opacity:1;fill-rule:nonzero;stroke:none"
         id="path80" /><path
         d="m 63.5195,223.129 h 36.9102 v 36.9102 H 63.5195 Z"
         style="fill:none;stroke:#ffffff;stroke-width:9.5;stroke-linecap:butt;stroke-linejoin:miter;stroke-miterlimit:4;stroke-dasharray:none;stroke-opacity:1"
         id="path82" /><path
         d="m 211.52,223.129 h 36.9102 v 36.9102 H 211.52 Z"
         style="fill:#ffffff;fill-opacity:1;fill-rule:nonzero;stroke:none"
         id="path84" /><path
         d="m 211.52,223.129 h 36.9102 v 36.9102 H 211.52 Z"
         style="fill:none;stroke:#ffffff;stroke-width:9.5;stroke-linecap:butt;stroke-linejoin:miter;stroke-miterlimit:4;stroke-dasharray:none;stroke-opacity:1"
         id="path86" /><path
         d="M 100.551,112.191 213.98,225.621"
         style="fill:#ffffff;fill-opacity:1;fill-rule:nonzero;stroke:none"
         id="path88" /><path
         d="M 100.551,112.191 213.98,225.621"
         style="fill:none;stroke:#ffffff;stroke-width:9.5;stroke-linecap:butt;stroke-linejoin:miter;stroke-miterlimit:4;stroke-dasharray:none;stroke-opacity:1"
         id="path90" /><path
         d="M 100.43,112.031 100.391,75.1211 H 63.5195 v 36.9099 z"
         style="fill:#ffffff;fill-opacity:1;fill-rule:nonzero;stroke:none"
         id="path92" /><path
         d="M 100.43,112.031 100.391,75.1211 H 63.5195 v 36.9099 z"
         style="fill:none;stroke:#ffffff;stroke-width:9.5;stroke-linecap:butt;stroke-linejoin:miter;stroke-miterlimit:4;stroke-dasharray:none;stroke-opacity:1"
         id="path94" /><path
         d="m 200.512,201.879 0.039,-67.5 c 0,-10.469 -19.961,-18.949 -44.571,-18.949 -24.652,0 -44.609,8.48 -44.609,18.949 l 0.078,67.383 z"
         style="fill:#ffffff;fill-opacity:1;fill-rule:nonzero;stroke:none"
         id="path96" /><path
         d="m 200.512,201.879 0.039,-67.5 c 0,-10.469 -19.961,-18.949 -44.571,-18.949 -24.652,0 -44.609,8.48 -44.609,18.949 l 0.078,67.383 z"
         style="fill:none;stroke:#e67a1c;stroke-width:9.5;stroke-linecap:butt;stroke-linejoin:miter;stroke-miterlimit:4;stroke-dasharray:none;stroke-opacity:1"
         id="path98" /><path
         d="m 200.551,203.551 c 0,-10.5 -19.961,-18.981 -44.571,-18.981 -24.652,0 -44.609,8.481 -44.609,18.981 0,10.469 19.957,18.949 44.609,18.949 24.61,0 44.571,-8.48 44.571,-18.949"
         style="fill:#ffffff;fill-opacity:1;fill-rule:nonzero;stroke:none"
         id="path100" /><path
         d="m 200.551,203.551 c 0,-10.5 -19.961,-18.981 -44.571,-18.981 -24.652,0 -44.609,8.481 -44.609,18.981 0,10.469 19.957,18.949 44.609,18.949 24.61,0 44.571,-8.48 44.571,-18.949 z"
         style="fill:none;stroke:#e67a1c;stroke-width:9.5;stroke-linecap:butt;stroke-linejoin:miter;stroke-miterlimit:4;stroke-dasharray:none;stroke-opacity:1"
         id="path102" /></g></g></svg>
